<?xml version="1.0" encoding="UTF-8" standalone="no" ?>
<!DOCTYPE svg PUBLIC "-//W3C//DTD SVG 1.1//EN" "http://www.w3.org/Graphics/SVG/1.1/DTD/svg11.dtd">
<svg xmlns="http://www.w3.org/2000/svg" xmlns:xlink="http://www.w3.org/1999/xlink" version="1.1" width="150" height="80" viewBox="0 5.83 150 80" xml:space="preserve">
<desc>Created with Fabric.js 5.2.4</desc>
<defs>
</defs>
<rect x="0" y="0" width="100%" height="100%" fill="transparent"></rect>
<g transform="matrix(1 0 0 1 75 40)" id="e29903b5-c8ec-4566-9cdf-713015409653"  >
<rect style="stroke: none; stroke-width: 1; stroke-dasharray: none; stroke-linecap: butt; stroke-dashoffset: 0; stroke-linejoin: miter; stroke-miterlimit: 4; fill: rgb(255,255,255); fill-rule: nonzero; opacity: 1; visibility: hidden;" vector-effect="non-scaling-stroke"  x="-75" y="-40" rx="0" ry="0" width="150" height="80" />
</g>
<g transform="matrix(Infinity NaN NaN Infinity 0 0)" id="cf087b82-a62d-463e-b175-15936055fee1"  >
</g>
<g transform="matrix(0.19 0 0 0.19 75 45)" id="path10000"  >
<path style="stroke: rgb(0,0,0); stroke-width: 0; stroke-dasharray: none; stroke-linecap: butt; stroke-dashoffset: 0; stroke-linejoin: miter; stroke-miterlimit: 4; fill: rgb(255,177,0); fill-rule: nonzero; opacity: 1;" vector-effect="non-scaling-stroke"  transform=" translate(-490.55, -534.21)" d="M 465.83684 466.9869 C 446.95454 466.9869 428.18694 474.762 414.83514 488.1139 C 406.42294000000004 496.526 400.23084 507.0873 396.79684000000003 518.4722 C 388.54294000000004 520.0303 380.74764000000005 524.0588 374.80374000000006 530.0026 C 367.05644000000007 537.7499 362.5464400000001 548.6357 362.5464400000001 559.5921000000001 C 362.5464400000001 570.5486000000001 367.05644000000007 581.4379000000001 374.80374000000006 589.1852000000001 C 382.5511400000001 596.9325000000001 393.4404400000001 601.4425000000001 404.39684000000005 601.4425000000001 L 591.83334 601.4425000000001 C 598.8268400000001 601.4425000000001 605.77864 598.565 610.72374 593.6201000000001 C 615.66894 588.6750000000001 618.5464400000001 581.7230000000001 618.5464400000001 574.7295000000001 C 618.5464400000001 567.7360000000001 615.66894 560.7878000000002 610.72374 555.8427000000001 C 605.80904 550.9278000000002 598.91184 548.0587000000002 591.96204 548.0234000000002 C 590.6058400000001 535.3525000000002 584.86534 523.1564000000002 575.84724 514.1383000000002 C 565.4625400000001 503.7536000000002 550.8674400000001 497.7069000000002 536.1812400000001 497.7069000000002 C 532.6156400000001 497.7069000000002 529.0579400000001 498.07250000000016 525.5620400000001 498.7608000000002 C 523.0038400000001 494.9433000000002 520.0905400000001 491.3657000000002 516.8385400000002 488.11390000000017 C 503.48674000000017 474.76200000000017 484.7192400000002 466.98690000000016 465.83684000000017 466.98690000000016 z" stroke-linecap="round" />
</g>
</svg>